<?xml version="1.0" encoding="UTF-8" standalone="no"?>
<!DOCTYPE svg PUBLIC "-//W3C//DTD SVG 1.1//EN"
 "http://www.w3.org/Graphics/SVG/1.1/DTD/svg11.dtd">
<!-- Generated by graphviz version 2.40.1 (20161225.0304)
 -->
<!-- Pages: 1 -->
<svg width="1337pt" height="1337pt"
 viewBox="0.00 0.00 1336.60 1336.60" xmlns="http://www.w3.org/2000/svg" xmlns:xlink="http://www.w3.org/1999/xlink">
<g id="graph0" class="graph" transform="scale(1 1) rotate(0) translate(4 1332.6)">
<polygon fill="#ffffff" stroke="transparent" points="-4,4 -4,-1332.6 1332.6,-1332.6 1332.6,4 -4,4"/>
<text text-anchor="middle" x="664.5168" y="-3.8" font-family="Times,serif" font-size="14.00" fill="#000000">NEO 0.7.0.dev</text>
<!-- NEO -->
<g id="node1" class="node">
<title>NEO</title>
<ellipse fill="none" stroke="#000000" cx="613.0642" cy="-712.04" rx="88.5" ry="88.5"/>
<text text-anchor="middle" x="613.0642" y="-699.54" font-family="Arial" font-size="50.00" fill="#000000">NEO</text>
</g>
<!-- AlphaOmega -->
<g id="node2" class="node">
<title>AlphaOmega</title>
<polygon fill="none" stroke="#4169e1" stroke-width="6" points="1101.0238,-992.81 910.0238,-992.81 910.0238,-951.81 1101.0238,-951.81 1101.0238,-992.81"/>
<text text-anchor="middle" x="1005.5238" y="-964.81" font-family="Arial" font-size="30.00" fill="#000000">AlphaOmega</text>
</g>
<!-- NEO&#45;&#45;AlphaOmega -->
<g id="edge1" class="edge">
<title>NEO&#45;&#45;AlphaOmega</title>
<path fill="none" stroke="#000000" stroke-width="4" d="M682.3119,-767.2352C727.0987,-801.9666 787.26,-846.8455 843.1147,-882.74 883.2056,-908.5041 931.2231,-934.4153 964.6026,-951.6924"/>
</g>
<!-- AsciiSignal -->
<g id="node3" class="node">
<title>AsciiSignal</title>
<polygon fill="none" stroke="#008080" stroke-width="6" points="447.8155,-1223.5 283.8155,-1223.5 283.8155,-1182.5 447.8155,-1182.5 447.8155,-1223.5"/>
<text text-anchor="middle" x="365.8155" y="-1195.5" font-family="Arial" font-size="30.00" fill="#000000">AsciiSignal</text>
</g>
<!-- NEO&#45;&#45;AsciiSignal -->
<g id="edge2" class="edge">
<title>NEO&#45;&#45;AsciiSignal</title>
<path fill="none" stroke="#000000" stroke-width="4" d="M580.6559,-794.6469C549.2831,-871.797 498.6525,-989.2798 444.6511,-1086.2 425.1228,-1121.2487 398.261,-1159.326 381.4762,-1182.1675"/>
</g>
<!-- AsciiSpikeTrain -->
<g id="node4" class="node">
<title>AsciiSpikeTrain</title>
<polygon fill="none" stroke="#008080" stroke-width="6" points="240.4945,-797.54 17.4945,-797.54 17.4945,-756.54 240.4945,-756.54 240.4945,-797.54"/>
<text text-anchor="middle" x="128.9945" y="-769.54" font-family="Arial" font-size="30.00" fill="#000000">AsciiSpikeTrain</text>
</g>
<!-- NEO&#45;&#45;AsciiSpikeTrain -->
<g id="edge3" class="edge">
<title>NEO&#45;&#45;AsciiSpikeTrain</title>
<path fill="none" stroke="#000000" stroke-width="4" d="M525.1222,-723.8487C445.2573,-734.5728 327.0732,-750.4424 240.5822,-762.0562"/>
</g>
<!-- Axon -->
<g id="node5" class="node">
<title>Axon</title>
<polygon fill="none" stroke="#20b2aa" stroke-width="6" points="466.5653,-412.75 381.5653,-412.75 381.5653,-371.75 466.5653,-371.75 466.5653,-412.75"/>
<text text-anchor="middle" x="424.0653" y="-384.75" font-family="Arial" font-size="30.00" fill="#000000">Axon</text>
</g>
<!-- NEO&#45;&#45;Axon -->
<g id="edge4" class="edge">
<title>NEO&#45;&#45;Axon</title>
<path fill="none" stroke="#000000" stroke-width="4" d="M568.0344,-635.8486C524.7977,-562.6913 462.3196,-456.9771 436.2286,-412.8306"/>
</g>
<!-- BCI2000 -->
<g id="node6" class="node">
<title>BCI2000</title>
<polygon fill="none" stroke="#20b2aa" stroke-width="6" points="590.7576,-1262.4 457.7576,-1262.4 457.7576,-1221.4 590.7576,-1221.4 590.7576,-1262.4"/>
<text text-anchor="middle" x="524.2576" y="-1234.4" font-family="Arial" font-size="30.00" fill="#000000">BCI2000</text>
</g>
<!-- NEO&#45;&#45;BCI2000 -->
<g id="edge5" class="edge">
<title>NEO&#45;&#45;BCI2000</title>
<path fill="none" stroke="#000000" stroke-width="4" d="M598.3996,-799.5356C577.2158,-925.928 539.319,-1152.0369 527.7236,-1221.2204"/>
</g>
<!-- Blackrock IO -->
<g id="node7" class="node">
<title>Blackrock IO</title>
<polygon fill="none" stroke="#20b2aa" stroke-width="6" points="797.7249,-1328.6 611.7249,-1328.6 611.7249,-1287.6 797.7249,-1287.6 797.7249,-1328.6"/>
<text text-anchor="middle" x="704.7249" y="-1300.6" font-family="Arial" font-size="30.00" fill="#000000">Blackrock IO</text>
</g>
<!-- NEO&#45;&#45;Blackrock IO -->
<g id="edge6" class="edge">
<title>NEO&#45;&#45;Blackrock IO</title>
<path fill="none" stroke="#000000" stroke-width="4" d="M595.6962,-798.9873C581.8163,-883.3879 568.1393,-1014.6701 591.0981,-1125.8 600.0106,-1168.9398 607.5213,-1179.1411 630.3748,-1216.8 646.2824,-1243.0133 669.0743,-1269.8532 685.2216,-1287.5859"/>
</g>
<!-- BrainVision -->
<g id="node8" class="node">
<title>BrainVision</title>
<polygon fill="none" stroke="#20b2aa" stroke-width="6" points="301.2868,-532.02 133.2868,-532.02 133.2868,-491.02 301.2868,-491.02 301.2868,-532.02"/>
<text text-anchor="middle" x="217.2868" y="-504.02" font-family="Arial" font-size="30.00" fill="#000000">BrainVision</text>
</g>
<!-- NEO&#45;&#45;BrainVision -->
<g id="edge7" class="edge">
<title>NEO&#45;&#45;BrainVision</title>
<path fill="none" stroke="#000000" stroke-width="4" d="M545.9437,-654.1172C511.1401,-626.4385 466.841,-594.69 423.0955,-572.96 384.8574,-553.9658 339.6532,-539.6716 301.3637,-529.6729"/>
</g>
<!-- Brainware DAM File -->
<g id="node9" class="node">
<title>Brainware DAM File</title>
<polygon fill="none" stroke="#4169e1" stroke-width="6" points="923.0046,-569.39 641.0046,-569.39 641.0046,-528.39 923.0046,-528.39 923.0046,-569.39"/>
<text text-anchor="middle" x="782.0046" y="-541.39" font-family="Arial" font-size="30.00" fill="#000000">Brainware DAM File</text>
</g>
<!-- NEO&#45;&#45;Brainware DAM File -->
<g id="edge8" class="edge">
<title>NEO&#45;&#45;Brainware DAM File</title>
<path fill="none" stroke="#000000" stroke-width="4" d="M676.9333,-650.36C706.4602,-621.8452 739.5636,-589.8763 760.5814,-569.5789"/>
</g>
<!-- Brainware F32 File -->
<g id="node10" class="node">
<title>Brainware F32 File</title>
<polygon fill="none" stroke="#4169e1" stroke-width="6" points="1193.2438,-409.69 927.2438,-409.69 927.2438,-368.69 1193.2438,-368.69 1193.2438,-409.69"/>
<text text-anchor="middle" x="1060.2438" y="-381.69" font-family="Arial" font-size="30.00" fill="#000000">Brainware F32 File</text>
</g>
<!-- NEO&#45;&#45;Brainware F32 File -->
<g id="edge9" class="edge">
<title>NEO&#45;&#45;Brainware F32 File</title>
<path fill="none" stroke="#000000" stroke-width="4" d="M699.1709,-690.9445C767.7114,-670.4309 862.4028,-633.3102 926.2046,-572.59 941.0559,-558.456 935.9625,-548.6868 947.032,-531.43 976.5126,-485.4713 1017.85,-436.6704 1041.5557,-409.8572"/>
</g>
<!-- Brainware SRC File -->
<g id="node11" class="node">
<title>Brainware SRC File</title>
<polygon fill="none" stroke="#4169e1" stroke-width="6" points="912.6199,-111.318 633.6199,-111.318 633.6199,-70.318 912.6199,-70.318 912.6199,-111.318"/>
<text text-anchor="middle" x="773.1199" y="-83.318" font-family="Arial" font-size="30.00" fill="#000000">Brainware SRC File</text>
</g>
<!-- NEO&#45;&#45;Brainware SRC File -->
<g id="edge10" class="edge">
<title>NEO&#45;&#45;Brainware SRC File</title>
<path fill="none" stroke="#000000" stroke-width="4" d="M621.394,-623.5211C625.23,-592.2315 630.5768,-556.9363 637.8046,-525.19 653.1544,-457.77 675.1386,-445.5806 686.1639,-377.32 695.8791,-317.1701 670.8283,-299.0454 686.7388,-240.23 700.3528,-189.9038 735.3662,-138.9651 756.3998,-111.4961"/>
</g>
<!-- Elan -->
<g id="node12" class="node">
<title>Elan</title>
<polygon fill="none" stroke="#20b2aa" stroke-width="6" points="537.7574,-1133.2 460.7574,-1133.2 460.7574,-1092.2 537.7574,-1092.2 537.7574,-1133.2"/>
<text text-anchor="middle" x="499.2574" y="-1105.2" font-family="Arial" font-size="30.00" fill="#000000">Elan</text>
</g>
<!-- NEO&#45;&#45;Elan -->
<g id="edge11" class="edge">
<title>NEO&#45;&#45;Elan</title>
<path fill="none" stroke="#000000" stroke-width="4" d="M588.7894,-797.5002C561.8937,-892.1873 520.3093,-1038.5862 505.0915,-1092.1612"/>
</g>
<!-- example IO -->
<g id="node13" class="node">
<title>example IO</title>
<polygon fill="none" stroke="#20b2aa" stroke-width="6" points="433.7361,-288.08 264.7361,-288.08 264.7361,-247.08 433.7361,-247.08 433.7361,-288.08"/>
<text text-anchor="middle" x="349.2361" y="-260.08" font-family="Arial" font-size="30.00" fill="#000000">example IO</text>
</g>
<!-- NEO&#45;&#45;example IO -->
<g id="edge12" class="edge">
<title>NEO&#45;&#45;example IO</title>
<path fill="none" stroke="#000000" stroke-width="4" d="M549.2698,-650.2501C495.2742,-594.1863 420.1839,-506.641 378.3653,-415.95 358.6895,-373.2797 352.2876,-317.742 350.2166,-288.193"/>
</g>
<!-- igorpro -->
<g id="node14" class="node">
<title>igorpro</title>
<polygon fill="none" stroke="#4169e1" stroke-width="6" points="798.9388,-284.43 689.9388,-284.43 689.9388,-243.43 798.9388,-243.43 798.9388,-284.43"/>
<text text-anchor="middle" x="744.4388" y="-256.43" font-family="Arial" font-size="30.00" fill="#000000">igorpro</text>
</g>
<!-- NEO&#45;&#45;igorpro -->
<g id="edge13" class="edge">
<title>NEO&#45;&#45;igorpro</title>
<path fill="none" stroke="#000000" stroke-width="4" d="M620.0721,-623.6808C623.7933,-592.2454 629.4056,-556.8161 637.8046,-525.19 662.5134,-432.1493 712.1167,-328.0124 733.8396,-284.6311"/>
</g>
<!-- KlustaKwik -->
<g id="node15" class="node">
<title>KlustaKwik</title>
<polygon fill="none" stroke="#008080" stroke-width="6" points="1010.3147,-879.54 846.3147,-879.54 846.3147,-838.54 1010.3147,-838.54 1010.3147,-879.54"/>
<text text-anchor="middle" x="928.3147" y="-851.54" font-family="Arial" font-size="30.00" fill="#000000">KlustaKwik</text>
</g>
<!-- NEO&#45;&#45;KlustaKwik -->
<g id="edge14" class="edge">
<title>NEO&#45;&#45;KlustaKwik</title>
<path fill="none" stroke="#000000" stroke-width="4" d="M693.4309,-749.5147C753.9955,-777.7557 834.7773,-815.4239 884.0914,-838.4188"/>
</g>
<!-- Kwik -->
<g id="node16" class="node">
<title>Kwik</title>
<polygon fill="none" stroke="#4169e1" stroke-width="6" points="855.6676,-1011.45 775.6676,-1011.45 775.6676,-970.45 855.6676,-970.45 855.6676,-1011.45"/>
<text text-anchor="middle" x="815.6676" y="-983.45" font-family="Arial" font-size="30.00" fill="#000000">Kwik</text>
</g>
<!-- NEO&#45;&#45;Kwik -->
<g id="edge15" class="edge">
<title>NEO&#45;&#45;Kwik</title>
<path fill="none" stroke="#000000" stroke-width="4" d="M665.2396,-783.8663C710.2621,-845.8455 772.3666,-931.3405 800.6049,-970.2143"/>
</g>
<!-- Micromed -->
<g id="node17" class="node">
<title>Micromed</title>
<polygon fill="none" stroke="#20b2aa" stroke-width="6" points="929.8295,-1177.5 782.8295,-1177.5 782.8295,-1136.5 929.8295,-1136.5 929.8295,-1177.5"/>
<text text-anchor="middle" x="856.3295" y="-1149.5" font-family="Arial" font-size="30.00" fill="#000000">Micromed</text>
</g>
<!-- NEO&#45;&#45;Micromed -->
<g id="edge16" class="edge">
<title>NEO&#45;&#45;Micromed</title>
<path fill="none" stroke="#000000" stroke-width="4" d="M653.3337,-790.9646C684.9695,-852.3534 730.5401,-939.4478 772.4676,-1014.65 796.911,-1058.4923 827.1243,-1108.9141 843.7967,-1136.4326"/>
</g>
<!-- NIX -->
<g id="node18" class="node">
<title>NIX</title>
<polygon fill="none" stroke="#008080" stroke-width="6" points="661.2981,-1122.6 594.2981,-1122.6 594.2981,-1081.6 661.2981,-1081.6 661.2981,-1122.6"/>
<text text-anchor="middle" x="627.7981" y="-1094.6" font-family="Arial" font-size="30.00" fill="#000000">NIX</text>
</g>
<!-- NEO&#45;&#45;NIX -->
<g id="edge17" class="edge">
<title>NEO&#45;&#45;NIX</title>
<path fill="none" stroke="#000000" stroke-width="4" d="M616.4076,-800.5507C619.8802,-892.483 625.0734,-1029.9657 627.0223,-1081.5604"/>
</g>
<!-- NeoHdf5 IO -->
<g id="node19" class="node">
<title>NeoHdf5 IO</title>
<polygon fill="none" stroke="#4169e1" stroke-width="6" points="325.4245,-1065.4 151.4245,-1065.4 151.4245,-1024.4 325.4245,-1024.4 325.4245,-1065.4"/>
<text text-anchor="middle" x="238.4245" y="-1037.4" font-family="Arial" font-size="30.00" fill="#000000">NeoHdf5 IO</text>
</g>
<!-- NEO&#45;&#45;NeoHdf5 IO -->
<g id="edge18" class="edge">
<title>NEO&#45;&#45;NeoHdf5 IO</title>
<path fill="none" stroke="#000000" stroke-width="4" d="M560.1545,-783.2021C516.0719,-839.1121 449.319,-916.3967 378.9254,-971.02 350.9471,-992.7303 315.6562,-1011.2601 287.4432,-1024.3322"/>
</g>
<!-- neomatlab -->
<g id="node20" class="node">
<title>neomatlab</title>
<polygon fill="none" stroke="#008080" stroke-width="6" points="354.5694,-871.2 199.5694,-871.2 199.5694,-830.2 354.5694,-830.2 354.5694,-871.2"/>
<text text-anchor="middle" x="277.0694" y="-843.2" font-family="Arial" font-size="30.00" fill="#000000">neomatlab</text>
</g>
<!-- NEO&#45;&#45;neomatlab -->
<g id="edge19" class="edge">
<title>NEO&#45;&#45;neomatlab</title>
<path fill="none" stroke="#000000" stroke-width="4" d="M530.8707,-745.9601C467.1472,-772.2578 380.9093,-807.8469 327.1557,-830.0301"/>
</g>
<!-- nest -->
<g id="node21" class="node">
<title>nest</title>
<polygon fill="none" stroke="#4169e1" stroke-width="6" points="543.8656,-324.76 470.8656,-324.76 470.8656,-283.76 543.8656,-283.76 543.8656,-324.76"/>
<text text-anchor="middle" x="507.3656" y="-296.76" font-family="Arial" font-size="30.00" fill="#000000">nest</text>
</g>
<!-- NEO&#45;&#45;nest -->
<g id="edge20" class="edge">
<title>NEO&#45;&#45;nest</title>
<path fill="none" stroke="#000000" stroke-width="4" d="M590.7774,-626.0586C565.7629,-529.5537 526.8303,-379.354 512.7096,-324.877"/>
</g>
<!-- Neuralynx -->
<g id="node22" class="node">
<title>Neuralynx</title>
<polygon fill="none" stroke="#20b2aa" stroke-width="6" points="419.8955,-617.16 268.8955,-617.16 268.8955,-576.16 419.8955,-576.16 419.8955,-617.16"/>
<text text-anchor="middle" x="344.3955" y="-589.16" font-family="Arial" font-size="30.00" fill="#000000">Neuralynx</text>
</g>
<!-- NEO&#45;&#45;Neuralynx -->
<g id="edge21" class="edge">
<title>NEO&#45;&#45;Neuralynx</title>
<path fill="none" stroke="#000000" stroke-width="4" d="M531.7256,-677.1091C486.1642,-657.5427 430.9164,-633.8165 392.2695,-617.2196"/>
</g>
<!-- NeuroExplorer -->
<g id="node23" class="node">
<title>NeuroExplorer</title>
<polygon fill="none" stroke="#20b2aa" stroke-width="6" points="1129.9513,-726.2 920.9513,-726.2 920.9513,-685.2 1129.9513,-685.2 1129.9513,-726.2"/>
<text text-anchor="middle" x="1025.4513" y="-698.2" font-family="Arial" font-size="30.00" fill="#000000">NeuroExplorer</text>
</g>
<!-- NEO&#45;&#45;NeuroExplorer -->
<g id="edge22" class="edge">
<title>NEO&#45;&#45;NeuroExplorer</title>
<path fill="none" stroke="#000000" stroke-width="4" d="M701.7849,-710.676C766.055,-709.6879 853.1754,-708.3486 920.8402,-707.3083"/>
</g>
<!-- NeuroScope -->
<g id="node24" class="node">
<title>NeuroScope</title>
<polygon fill="none" stroke="#20b2aa" stroke-width="6" points="1010.1375,-316.07 828.1375,-316.07 828.1375,-275.07 1010.1375,-275.07 1010.1375,-316.07"/>
<text text-anchor="middle" x="919.1375" y="-288.07" font-family="Arial" font-size="30.00" fill="#000000">NeuroScope</text>
</g>
<!-- NEO&#45;&#45;NeuroScope -->
<g id="edge23" class="edge">
<title>NEO&#45;&#45;NeuroScope</title>
<path fill="none" stroke="#000000" stroke-width="4" d="M611.4142,-623.1314C614.1693,-590.6181 621.3819,-554.6222 637.8046,-525.19 694.1756,-424.1639 814.2817,-349.9899 877.7894,-316.08"/>
</g>
<!-- neuroshare -->
<g id="node25" class="node">
<title>neuroshare</title>
<polygon fill="none" stroke="#4169e1" stroke-width="6" points="1012.1475,-1109.4 845.1475,-1109.4 845.1475,-1068.4 1012.1475,-1068.4 1012.1475,-1109.4"/>
<text text-anchor="middle" x="928.6475" y="-1081.4" font-family="Arial" font-size="30.00" fill="#000000">neuroshare</text>
</g>
<!-- NEO&#45;&#45;neuroshare -->
<g id="edge24" class="edge">
<title>NEO&#45;&#45;neuroshare</title>
<path fill="none" stroke="#000000" stroke-width="4" d="M678.752,-771.5994C731.1067,-821.006 804.4109,-894.6723 858.8676,-967.25 883.709,-1000.3577 906.3294,-1043.1393 918.724,-1068.1469"/>
</g>
<!-- NSDF -->
<g id="node26" class="node">
<title>NSDF</title>
<polygon fill="none" stroke="#008080" stroke-width="6" points="649.9423,-248.11 551.9423,-248.11 551.9423,-207.11 649.9423,-207.11 649.9423,-248.11"/>
<text text-anchor="middle" x="600.9423" y="-220.11" font-family="Arial" font-size="30.00" fill="#000000">NSDF</text>
</g>
<!-- NEO&#45;&#45;NSDF -->
<g id="edge25" class="edge">
<title>NEO&#45;&#45;NSDF</title>
<path fill="none" stroke="#000000" stroke-width="4" d="M610.8479,-623.4699C607.9512,-507.7073 603.059,-312.1993 601.4629,-248.4132"/>
</g>
<!-- Python pickle file -->
<g id="node27" class="node">
<title>Python pickle file</title>
<polygon fill="none" stroke="#008080" stroke-width="6" points="1191.232,-575.63 950.232,-575.63 950.232,-534.63 1191.232,-534.63 1191.232,-575.63"/>
<text text-anchor="middle" x="1070.732" y="-547.63" font-family="Arial" font-size="30.00" fill="#000000">Python pickle file</text>
</g>
<!-- NEO&#45;&#45;Python pickle file -->
<g id="edge26" class="edge">
<title>NEO&#45;&#45;Python pickle file</title>
<path fill="none" stroke="#000000" stroke-width="4" d="M697.0076,-683.2603C787.8434,-652.1175 930.4231,-603.2345 1010.6648,-575.7239"/>
</g>
<!-- Plexon -->
<g id="node28" class="node">
<title>Plexon</title>
<polygon fill="none" stroke="#20b2aa" stroke-width="6" points="901.9692,-445.29 793.9692,-445.29 793.9692,-404.29 901.9692,-404.29 901.9692,-445.29"/>
<text text-anchor="middle" x="847.9692" y="-417.29" font-family="Arial" font-size="30.00" fill="#000000">Plexon</text>
</g>
<!-- NEO&#45;&#45;Plexon -->
<g id="edge27" class="edge">
<title>NEO&#45;&#45;Plexon</title>
<path fill="none" stroke="#000000" stroke-width="4" d="M607.5915,-623.6669C609.6688,-590.1078 617.4149,-553.2499 637.8046,-525.19 674.8862,-474.1588 744.8166,-448.0396 793.7916,-435.4206"/>
</g>
<!-- PyNN NumpyBinaryFile -->
<g id="node29" class="node">
<title>PyNN NumpyBinaryFile</title>
<polygon fill="none" stroke="#008080" stroke-width="6" points="616.895,-67.739 285.895,-67.739 285.895,-26.739 616.895,-26.739 616.895,-67.739"/>
<text text-anchor="middle" x="451.395" y="-39.739" font-family="Arial" font-size="30.00" fill="#000000">PyNN NumpyBinaryFile</text>
</g>
<!-- NEO&#45;&#45;PyNN NumpyBinaryFile -->
<g id="edge28" class="edge">
<title>NEO&#45;&#45;PyNN NumpyBinaryFile</title>
<path fill="none" stroke="#000000" stroke-width="4" d="M605.7252,-623.5679C596.976,-535.4326 579.3081,-396.8543 547.0656,-280.56 524.4908,-199.1358 481.5778,-107.8703 461.8238,-67.8818"/>
</g>
<!-- PyNN StandardTextFile -->
<g id="node30" class="node">
<title>PyNN StandardTextFile</title>
<polygon fill="none" stroke="#008080" stroke-width="6" points="1327.2137,-809.26 1000.2137,-809.26 1000.2137,-768.26 1327.2137,-768.26 1327.2137,-809.26"/>
<text text-anchor="middle" x="1163.7137" y="-781.26" font-family="Arial" font-size="30.00" fill="#000000">PyNN StandardTextFile</text>
</g>
<!-- NEO&#45;&#45;PyNN StandardTextFile -->
<g id="edge29" class="edge">
<title>NEO&#45;&#45;PyNN StandardTextFile</title>
<path fill="none" stroke="#000000" stroke-width="4" d="M700.9252,-724.2813C785.7165,-736.095 915.6824,-754.2027 1016.3226,-768.2245"/>
</g>
<!-- RawBinarySignal -->
<g id="node31" class="node">
<title>RawBinarySignal</title>
<polygon fill="none" stroke="#20b2aa" stroke-width="6" points="246.0386,-640.93 1.0386,-640.93 1.0386,-599.93 246.0386,-599.93 246.0386,-640.93"/>
<text text-anchor="middle" x="123.5386" y="-612.93" font-family="Arial" font-size="30.00" fill="#000000">RawBinarySignal</text>
</g>
<!-- NEO&#45;&#45;RawBinarySignal -->
<g id="edge30" class="edge">
<title>NEO&#45;&#45;RawBinarySignal</title>
<path fill="none" stroke="#000000" stroke-width="4" d="M525.8291,-695.7148C444.0527,-680.4111 321.4863,-657.474 233.142,-640.9412"/>
</g>
<!-- Spike2 -->
<g id="node32" class="node">
<title>Spike2</title>
<polygon fill="none" stroke="#20b2aa" stroke-width="6" points="366.1241,-459.72 258.1241,-459.72 258.1241,-418.72 366.1241,-418.72 366.1241,-459.72"/>
<text text-anchor="middle" x="312.1241" y="-431.72" font-family="Arial" font-size="30.00" fill="#000000">Spike2</text>
</g>
<!-- NEO&#45;&#45;Spike2 -->
<g id="edge31" class="edge">
<title>NEO&#45;&#45;Spike2</title>
<path fill="none" stroke="#000000" stroke-width="4" d="M547.3935,-652.5056C480.2904,-591.6727 379.78,-500.5541 335.0312,-459.9866"/>
</g>
<!-- Stimfit -->
<g id="node33" class="node">
<title>Stimfit</title>
<polygon fill="none" stroke="#4169e1" stroke-width="6" points="441.4511,-1083 341.4511,-1083 341.4511,-1042 441.4511,-1042 441.4511,-1083"/>
<text text-anchor="middle" x="391.4511" y="-1055" font-family="Arial" font-size="30.00" fill="#000000">Stimfit</text>
</g>
<!-- NEO&#45;&#45;Stimfit -->
<g id="edge32" class="edge">
<title>NEO&#45;&#45;Stimfit</title>
<path fill="none" stroke="#000000" stroke-width="4" d="M565.5227,-787.2225C514.1411,-868.4775 435.4657,-992.8951 404.5607,-1041.7684"/>
</g>
<!-- Tdt -->
<g id="node34" class="node">
<title>Tdt</title>
<polygon fill="none" stroke="#20b2aa" stroke-width="6" points="682.9639,-374.12 623.9639,-374.12 623.9639,-333.12 682.9639,-333.12 682.9639,-374.12"/>
<text text-anchor="middle" x="653.4639" y="-346.12" font-family="Arial" font-size="30.00" fill="#000000">Tdt</text>
</g>
<!-- NEO&#45;&#45;Tdt -->
<g id="edge33" class="edge">
<title>NEO&#45;&#45;Tdt</title>
<path fill="none" stroke="#000000" stroke-width="4" d="M622.9989,-623.9016C632.3909,-540.577 645.8153,-421.4775 651.1501,-374.148"/>
</g>
<!-- WinEdr -->
<g id="node35" class="node">
<title>WinEdr</title>
<polygon fill="none" stroke="#20b2aa" stroke-width="6" points="375.7254,-967.82 260.7254,-967.82 260.7254,-926.82 375.7254,-926.82 375.7254,-967.82"/>
<text text-anchor="middle" x="318.2254" y="-939.82" font-family="Arial" font-size="30.00" fill="#000000">WinEdr</text>
</g>
<!-- NEO&#45;&#45;WinEdr -->
<g id="edge34" class="edge">
<title>NEO&#45;&#45;WinEdr</title>
<path fill="none" stroke="#000000" stroke-width="4" d="M543.5649,-767.5001C479.5515,-818.5826 388.0307,-891.6157 343.9269,-926.8104"/>
</g>
<!-- WinWcp -->
<g id="node36" class="node">
<title>WinWcp</title>
<polygon fill="none" stroke="#20b2aa" stroke-width="6" points="761.5748,-1213.6 633.5748,-1213.6 633.5748,-1172.6 761.5748,-1172.6 761.5748,-1213.6"/>
<text text-anchor="middle" x="697.5748" y="-1185.6" font-family="Arial" font-size="30.00" fill="#000000">WinWcp</text>
</g>
<!-- NEO&#45;&#45;WinWcp -->
<g id="edge35" class="edge">
<title>NEO&#45;&#45;WinWcp</title>
<path fill="none" stroke="#000000" stroke-width="4" d="M628.4175,-799.4352C648.5945,-914.2891 682.7808,-1108.888 693.9362,-1172.3885"/>
</g>
</g>
</svg>
